<?xml version="1.0" encoding="utf-8"?>
<!-- Generator: Adobe Illustrator 24.0.0, SVG Export Plug-In . SVG Version: 6.00 Build 0)  -->
<svg version="1.1" id="Layer_1" xmlns="http://www.w3.org/2000/svg" xmlns:xlink="http://www.w3.org/1999/xlink" x="0px" y="0px"
	 viewBox="0 0 160 80" style="enable-background:new 0 0 160 80;" xml:space="preserve">
<style type="text/css">
	.st0{fill:#FFFFFF;}
</style>
<g>
	<path class="st0" d="M40,7c18.2,0,33,14.8,33,33S58.2,73,40,73S7,58.2,7,40S21.8,7,40,7 M40,0C17.91,0,0,17.91,0,40s17.91,40,40,40
		s40-17.91,40-40S62.09,0,40,0L40,0z"/>
</g>
<g>
	<path class="st0" d="M40,27c7.17,0,13,5.83,13,13s-5.83,13-13,13s-13-5.83-13-13S32.83,27,40,27 M40,20c-11.05,0-20,8.95-20,20
		s8.95,20,20,20s20-8.95,20-20S51.05,20,40,20L40,20z"/>
</g>
<g>
	<path class="st0" d="M114.24,80V33.73h-7.54V26.3h7.54v-2.55c0-7.55,1.66-14.42,6.21-18.75C124.12,1.44,129,0,133.55,0
		c3.44,0,6.44,0.78,8.32,1.55l-1.33,7.55c-1.44-0.67-3.44-1.22-6.21-1.22c-8.32,0-10.43,7.32-10.43,15.53v2.89h12.98v7.43H123.9V80
		H114.24z"/>
</g>
</svg>
